<svg xmlns="http://www.w3.org/2000/svg" viewBox="0 0 136 60"><defs><style>.cls-1{fill:#fff}</style></defs><g id="Layer_2" data-name="Layer 2"><g id="Layer_1-2" data-name="Layer 1"><path class="cls-1" d="M.86 45.11A2.86 2.86 0 0 1 0 43V14a2.86 2.86 0 0 1 .86-2.07A2.86 2.86 0 0 1 3 11h8a12.08 12.08 0 0 1 8.84 3.67 12.06 12.06 0 0 1 3.65 8.84 12.06 12.06 0 0 1-3.65 8.84A12.09 12.09 0 0 1 11 36.06H6v7a2.87 2.87 0 0 1-.87 2.08A2.85 2.85 0 0 1 3 46a2.85 2.85 0 0 1-2.14-.89zm5.06-15h5a6.35 6.35 0 0 0 4.65-1.95 6.35 6.35 0 0 0 1.92-4.65A6.54 6.54 0 0 0 11 17H6zM47.2 28.5a13.29 13.29 0 0 0-2.2 7.36V43a2.92 2.92 0 0 0 .87 2.11 3 3 0 0 0 4.19 0A2.88 2.88 0 0 0 50.9 43V23.12z"/><path d="M64.21 46a2.59 2.59 0 0 1-2.66-2.64V14.18a2.59 2.59 0 0 1 2.66-2.63h9.48A9.36 9.36 0 0 1 83.1 21a9.23 9.23 0 0 1-2.85 6.69 10 10 0 0 1 4.18 8.18 9.81 9.81 0 0 1-3 7.18A10.55 10.55 0 0 1 74 46zm9.31-20.3a4.16 4.16 0 0 0 3-1.48 4.69 4.69 0 0 0 1.21-3.05 4.37 4.37 0 0 0-4.34-4.24h-6.48v8.77zm.33 14.95a5.26 5.26 0 0 0 3.69-1.56 5.12 5.12 0 0 0 1.53-3.57 4.85 4.85 0 0 0-1.53-3.56 5.61 5.61 0 0 0-3.72-1.42h-6.91v10.08zM92 46a2.6 2.6 0 0 1-2.48-2.66v-29.1a2.68 2.68 0 0 1 2.7-2.69h14.36a2.59 2.59 0 0 1 1.88.78 2.52 2.52 0 0 1 .76 1.91 2.6 2.6 0 0 1-2.64 2.66H94.91v9.3h8.45a2.47 2.47 0 0 1 1.91.73 2.64 2.64 0 0 1-1.91 4.49h-8.45v9.23h11.7a2.62 2.62 0 0 1 2.64 2.68 2.51 2.51 0 0 1-.76 1.89 2.45 2.45 0 0 1-1.88.75zm28.91-2.67V16.87h-7.16a2.66 2.66 0 0 1 0-5.32h19.59a2.64 2.64 0 0 1 2.66 2.69 2.41 2.41 0 0 1-.75 1.88 2.68 2.68 0 0 1-1.91.75h-7.18v26.46a2.62 2.62 0 0 1-2.69 2.67 2.5 2.5 0 0 1-2.56-2.67z" fill="#9bc930"/><path class="cls-1" d="M.6 59.23v-7.51a.67.67 0 0 1 .69-.72h2.32a2.77 2.77 0 0 1 1.9.76 2.59 2.59 0 0 1 .78 1.86 2.52 2.52 0 0 1-.78 1.85 2.71 2.71 0 0 1-1.9.76H2v3a.67.67 0 0 1-.69.68.67.67 0 0 1-.71-.68zm3-4.34a1.34 1.34 0 0 0 .92-.38 1.24 1.24 0 0 0 0-1.76 1.44 1.44 0 0 0-.92-.35H2v2.49zm9.93 5a.66.66 0 0 1-.55-.66v-7.51a.64.64 0 0 1 .2-.48.62.62 0 0 1 .48-.2.68.68 0 0 1 .7.68v6.81h2.88a.68.68 0 0 1 .68.69.65.65 0 0 1-.19.48.64.64 0 0 1-.49.2h-3.66zm16.7-.39l-.87-2.06h-3.51L25 59.49a.61.61 0 0 1-.38.37.79.79 0 0 1-.25 0 .66.66 0 0 1-.3-.07.61.61 0 0 1-.39-.58.59.59 0 0 1 .08-.32L27 51.46a.67.67 0 0 1 .64-.42.65.65 0 0 1 .62.41l3.21 7.49a.69.69 0 0 1 .08.32.63.63 0 0 1-.39.58.59.59 0 0 1-.29.07.64.64 0 0 1-.24 0 .7.7 0 0 1-.4-.41zm-1.44-3.44l-1.19-2.82-1.18 2.82zm10.01 3.17v-3l-2.71-4a.67.67 0 0 1 .08-1 .67.67 0 0 1 1 .06l2.35 3.57 2.33-3.58a.66.66 0 0 1 1-.07.67.67 0 0 1 .26.53.75.75 0 0 1-.18.46l-2.67 4v3a.69.69 0 0 1-1.38 0zm27.52.26l-2.1-5.15-.69 5a.65.65 0 0 1-.67.58.68.68 0 0 1-.7-.68v-.1l1-7.43a.66.66 0 0 1 .19-.38.69.69 0 0 1 .51-.24 1 1 0 0 1 .27 0 .7.7 0 0 1 .37.37l2.44 6 2.42-6a.69.69 0 0 1 .62-.42.75.75 0 0 1 .26 0h.08a.67.67 0 0 1 .38.53l1 7.46v.08a.69.69 0 0 1-.7.68.67.67 0 0 1-.68-.59l-.64-4.94-2.08 5.23a.71.71 0 0 1-.66.42.66.66 0 0 1-.62-.42zM84 59.5l-.87-2.06H79.6l-.86 2.05a.57.57 0 0 1-.37.37.85.85 0 0 1-.25 0 .63.63 0 0 1-.3-.07.61.61 0 0 1-.39-.58.68.68 0 0 1 .07-.32l3.25-7.48a.67.67 0 0 1 .63-.42.66.66 0 0 1 .63.41l3.21 7.49a.68.68 0 0 1 .07.32.62.62 0 0 1-.38.58.59.59 0 0 1-.29.07.6.6 0 0 1-.24 0 .67.67 0 0 1-.38-.36zm-1.45-3.44l-1.18-2.82-1.18 2.82zm9.86 3.43a2.7 2.7 0 0 1-1.15-1.2.75.75 0 0 1-.09-.37.83.83 0 0 1 0-.22.67.67 0 0 1 .33-.36.52.52 0 0 1 .3-.09.88.88 0 0 1 .64.41 2.07 2.07 0 0 0 1.85 1 2 2 0 0 0 1.14-.33 1.12 1.12 0 0 0 .53-.94 1 1 0 0 0-.54-.88 3.63 3.63 0 0 0-.93-.33h-.18a4.76 4.76 0 0 1-2.11-.84 2.09 2.09 0 0 1-.86-1.72 2.4 2.4 0 0 1 .89-1.86 3.27 3.27 0 0 1 2-.71 3.64 3.64 0 0 1 1.54.33 2.56 2.56 0 0 1 1.1 1 .56.56 0 0 1 .08.27.74.74 0 0 1 0 .12.69.69 0 0 1-.19.33.61.61 0 0 1-.45.17A.64.64 0 0 1 96 53a3.27 3.27 0 0 0-.73-.51 2.36 2.36 0 0 0-.92-.16 1.9 1.9 0 0 0-1.07.3 1 1 0 0 0-.47.86.9.9 0 0 0 .6.84 6.08 6.08 0 0 0 1.41.42 4.56 4.56 0 0 1 1.79.79 2.08 2.08 0 0 1 .8 1.7 2.6 2.6 0 0 1-.89 1.95 3.41 3.41 0 0 1-2.2.78 3.56 3.56 0 0 1-1.91-.48zm13.4-.26v-6.82H104a.67.67 0 0 1-.68-.69.66.66 0 0 1 .68-.72h5a.67.67 0 0 1 .68.69.6.6 0 0 1-.19.48.67.67 0 0 1-.49.2h-1.85v6.82a.68.68 0 0 1-.7.68.65.65 0 0 1-.64-.64zm11.06.68a.68.68 0 0 1-.64-.69v-7.49a.65.65 0 0 1 .21-.49.66.66 0 0 1 .49-.2h3.7a.67.67 0 0 1 .48.2.66.66 0 0 1 .2.49.67.67 0 0 1-.68.69h-3v2.39h2.18a.66.66 0 0 1 .49.19.69.69 0 0 1 .2.5.67.67 0 0 1-.69.66h-2.18v2.37h3a.68.68 0 0 1 .68.7.66.66 0 0 1-.2.48.63.63 0 0 1-.48.2zm11.13-.68v-7.51a.66.66 0 0 1 .68-.68H131a2.82 2.82 0 0 1 1.91.76 2.63 2.63 0 0 1 .28 3.39 2.64 2.64 0 0 1-1.26.92l1.64 2.78a.67.67 0 0 1 .1.33.65.65 0 0 1 0 .19.69.69 0 0 1-.66.5.54.54 0 0 1-.19 0 .64.64 0 0 1-.41-.32l-1.94-3.29h-1.06v3a.67.67 0 0 1-.69.68.66.66 0 0 1-.72-.75zm3-4.34a1.34 1.34 0 0 0 .92-.38 1.22 1.22 0 0 0 0-1.76 1.42 1.42 0 0 0-.92-.35h-1.63v2.49zM54.54 9.16a2.93 2.93 0 0 0-1.29-1.69 2.7 2.7 0 0 0-1-.38 2.41 2.41 0 0 0-1.91.51 3.1 3.1 0 0 0-.69.82L44 16.78a5.6 5.6 0 0 1-10.39-1.1l-1.44-4.27a3 3 0 0 0-1.54-1.75 2.74 2.74 0 0 0-1.12-.34 3.35 3.35 0 0 0-2.33.69 2.83 2.83 0 0 0-1.16 2V43a2.94 2.94 0 0 0 3 3 2.84 2.84 0 0 0 2.08-.86A2.92 2.92 0 0 0 32 43V30.9a61.12 61.12 0 0 0 3.89 7 4.28 4.28 0 0 0 1.64 1.58 2.6 2.6 0 0 0 1.15.25 3 3 0 0 0 1.23-.27 2.87 2.87 0 0 0 1.8-2.48 3.75 3.75 0 0 0-.12-1.43 11.45 11.45 0 0 1-.5-2.19c-.11-1.48.27-2.4 1.38-4.07l11.86-18a2.7 2.7 0 0 0 .32-1.11 3 3 0 0 0-.11-1.02z"/><path class="cls-1" d="M45.33 5.77A5.77 5.77 0 1 1 39.56 0a5.77 5.77 0 0 1 5.77 5.77z"/></g></g></svg>